<svg width="23" height="23" viewBox="0 0 23 23" fill="none" xmlns="http://www.w3.org/2000/svg">
<path d="M11.25 0C9.6875 0 8.22266 0.292969 6.85547 0.878906C5.52734 1.46484 4.33594 2.28516 3.28125 3.33984C2.26562 4.35547 1.46484 5.54688 0.878906 6.91406C0.292969 8.24219 0 9.6875 0 11.25C0 12.8125 0.292969 14.2773 0.878906 15.6445C1.46484 16.9727 2.26562 18.1641 3.28125 19.2188C4.33594 20.2344 5.52734 21.0352 6.85547 21.6211C8.22266 22.207 9.6875 22.5 11.25 22.5C12.8125 22.5 14.2578 22.207 15.5859 21.6211C16.9531 21.0352 18.1445 20.2344 19.1602 19.2188C20.2148 18.1641 21.0352 16.9727 21.6211 15.6445C22.207 14.2773 22.5 12.8125 22.5 11.25C22.5 10.9766 22.4805 10.7031 22.4414 10.4297C22.4414 10.1172 22.4219 9.82422 22.3828 9.55078C21.7578 10.4102 20.957 11.0937 19.9805 11.6016C19.043 12.1094 18.0078 12.3633 16.875 12.3633C15.625 12.3633 14.4922 12.0703 13.4766 11.4844C12.4609 10.8594 11.6406 10.0391 11.0156 9.02344C10.4297 8.00781 10.1367 6.875 10.1367 5.625C10.1367 4.49219 10.3906 3.45703 10.8984 2.51953C11.4063 1.54297 12.0898 0.742188 12.9492 0.117188C12.6758 0.078125 12.3828 0.0585938 12.0703 0.0585938C11.7969 0.0195312 11.5234 0 11.25 0Z" fill="black"/>
</svg>
